<?xml version="1.0" standalone="no"?>
<!DOCTYPE svg PUBLIC "-//W3C//DTD SVG 20010904//EN"
 "http://www.w3.org/TR/2001/REC-SVG-20010904/DTD/svg10.dtd">
<svg version="1.0" xmlns="http://www.w3.org/2000/svg"
 width="60.000000pt" height="60.000000pt" viewBox="0 0 60.000000 60.000000"
 preserveAspectRatio="xMidYMid meet">

<g transform="translate(0.000000,60.000000) scale(0.100000,-0.100000)"
fill="#000000" stroke="none">
<path d="M205 583 c-65 -24 -110 -56 -146 -106 -30 -41 -59 -122 -59 -164 0
-40 17 -25 23 21 9 66 25 95 49 88 18 -4 19 -3 7 16 -12 19 -10 25 16 53 56
58 195 112 195 75 0 -9 5 -16 10 -16 6 0 10 7 10 16 0 36 127 -11 188 -69 34
-33 40 -52 20 -60 -7 -2 -9 -8 -5 -13 9 -9 39 6 44 22 2 6 -13 29 -32 51 -73
86 -214 124 -320 86z"/>
<path d="M215 491 c-168 -78 -164 -314 7 -385 102 -43 221 6 269 109 45 96 1
222 -93 271 -33 17 -54 8 -24 -10 102 -61 140 -158 97 -251 -70 -151 -272
-151 -342 0 -45 96 1 207 103 250 21 8 47 15 58 15 11 0 20 5 20 10 0 16 -52
11 -95 -9z"/>
<path d="M240 381 c0 -11 -6 -22 -12 -25 -10 -5 -10 -7 0 -12 6 -3 12 -12 12
-19 0 -7 -6 -16 -12 -19 -10 -5 -10 -7 0 -12 7 -3 12 -24 12 -50 0 -24 5 -44
10 -44 6 0 10 14 10 30 0 27 3 30 30 30 16 0 47 9 69 21 36 19 39 22 25 36
-13 14 -13 17 3 29 12 9 14 13 5 14 -8 0 -25 9 -39 20 -36 28 -113 28 -113 1z
m85 -11 c4 -6 -8 -10 -29 -10 -20 0 -36 5 -36 10 0 6 13 10 29 10 17 0 33 -4
36 -10z m25 -45 c0 -11 -12 -15 -45 -15 -33 0 -45 4 -45 15 0 11 12 15 45 15
33 0 45 -4 45 -15z m-32 -42 c-10 -2 -28 -2 -40 0 -13 2 -5 4 17 4 22 1 32 -1
23 -4z"/>
<path d="M575 313 c0 -92 -17 -143 -46 -136 -10 3 -19 0 -19 -6 0 -6 5 -11 10
-11 17 0 11 -17 -16 -50 -48 -56 -194 -114 -194 -76 0 9 -4 16 -10 16 -5 0
-10 -7 -10 -16 0 -37 -139 17 -195 75 -26 28 -28 34 -16 53 12 19 11 20 -9 15
-16 -4 -24 1 -32 21 -9 23 -12 24 -15 9 -7 -27 46 -106 95 -144 147 -112 368
-62 446 100 31 63 41 121 32 182 -11 70 -22 53 -21 -32z"/>
</g>
</svg>
