<svg xmlns="http://www.w3.org/2000/svg" width="120" height="36" fill="none" viewBox="0 0 120 36"><path fill="#4D77FF" fill-rule="evenodd" d="M6.25766 0h9.07464l-4.3576 4.43949.0008.00074-3.40954 3.47354.00078.00074-3.41792 3.48209-.00057-.0005c-2.26297 2.3055-2.20164 5.9817.13474 8.2104l-.00007.0001c2.34438 2.2273 6.08618 2.1626 8.35208-.1441l.0089.0084 3.4181-3.4823.0008.0007 3.4196-3.4838-.0007-.0006c.377-.3738.9825-.3812 1.3855-.0147l.0013-.0013c.3888.3755.4002.9673.0269 1.3572l-.0004-.0004-3.4196 3.4839.0007.0007-3.4173 3.4815-.001-.0009L7.02168 28h-.76402C2.80165 28 0 25.1983 0 21.7423V6.25766C0 2.80165 2.80165 0 6.25766 0Zm7.58194 28 3.7564-3.827.0016.0015 3.4196-3.4839-.0008-.0007 3.4084-3.4724.0005.0004c2.2658-2.3083 2.2016-5.9909-.1434-8.21875l-.0013.00135c-2.3454-2.22186-6.0837-2.15464-8.3475.15166l.0007.0007-3.4086 3.47264-.0008-.0008-3.41793 3.4822-.00889-.0085c-.37431.3814-.98247.3939-1.38887.0301-.3949-.3778-.40514-.9774-.02307-1.3684l.00057.0006 3.41959-3.4839-.0008-.0007 3.4196-3.48382-.0013-.0012L22.0828.00910253C25.3805.185897 28 2.91587 28 6.25766V21.7423C28 25.1983 25.1983 28 21.7423 28h-7.9027ZM32 22.7184l2.9675-3.0407c.4475.5126.8479.9378 1.2012 1.2757.3651.3379.8067.6932 1.3248 1.066.5299.3612 1.1011.635 1.7134.8214.6241.1864 1.2895.2796 1.996.2796 1.4014 0 2.4553-.3495 3.1619-1.0486.7065-.7106 1.0598-1.532 1.0598-2.464 0-.5476-.1413-1.0428-.4239-1.4855-.2709-.4427-.6418-.8155-1.1128-1.1184-.4593-.3146-.9951-.6058-1.6075-.8738-.6005-.268-1.2364-.5301-1.9077-.7864-.6594-.268-1.3248-.5476-1.996-.8388-.6595-.303-1.2954-.6583-1.9077-1.0661-.6006-.4194-1.1364-.8796-1.6074-1.3805-.4593-.5127-.8302-1.1476-1.1129-1.9049-.2708-.75728-.4062-1.60194-.4062-2.53398 0-2.3534.8007-4.21165 2.4023-5.57476C37.3581.681553 39.4424 0 41.9978 0c2.4847 0 4.8812.83301 7.1892 2.49903l-2.4552 3.65243c-1.4132-1.23496-3.0677-1.85243-4.9636-1.85243-1.1776 0-2.0961.25048-2.7556.75146-.6477.50097-.9715 1.2-.9715 2.09708 0 .71068.2237 1.32816.6712 1.85243s1.0245.95534 1.7311 1.2932c.7183.3262 1.5073.6466 2.367.9612.8714.3145 1.7369.6815 2.5966 1.1009.8596.4078 1.6427.8913 2.3493 1.4505.7183.5592 1.3012 1.3165 1.7487 2.2719.4475.9437.6712 2.0505.6712 3.3204 0 2.4349-.7772 4.3805-2.3316 5.8369-1.5544 1.4563-3.7801 2.1844-6.677 2.1844-1.1423 0-2.2021-.1223-3.1795-.367-.9656-.2446-1.9843-.7281-3.0559-1.4505-1.0716-.7223-2.049-1.6835-2.9322-2.8835Zm20.4667 4.2292V.454369h4.4513V16.532l6.2177-6.58831h5.7055l-7.5249 7.77671 8.2491 9.2272h-5.8468l-6.8006-7.5845v7.5845h-4.4513ZM74.0461 9.94369h-4.9282l7.1362 17.47571L73.1453 36h4.3453l9.5032-26.05631h-4.3806L78.3561 21.6874l-4.31-11.74371ZM88.56 26.9476V9.94369h4.4514v1.25821c.8243-.6058 1.7075-1.0194 2.6496-1.24073.9538-.22136 2.2727-.33204 3.9567-.33204v4.21167c-1.1187 0-2.0785.0641-2.8792.1922-.789.1282-1.4249.3087-1.9078.5418-.4828.2213-.8596.5301-1.1304.9262-.2709.3961-.4534.8155-.5476 1.2582-.0942.4311-.1413.9612-.1413 1.5903v8.5981H88.56Zm13.825-14.7321c-1.766 1.7243-2.6496 3.8214-2.6496 6.2913 0 1.6078.4006 3.099 1.2016 4.4738.812 1.3631 1.919 2.4466 3.32 3.2505 1.402.7922 2.933 1.1883 4.593 1.1883 1.672 0 3.209-.3961 4.61-1.1883 1.413-.8039 2.52-1.8874 3.321-3.2505.813-1.3748 1.219-2.866 1.219-4.4738 0-1.6194-.406-3.1107-1.219-4.4738-.801-1.3631-1.908-2.4349-3.321-3.2155-1.401-.7923-2.938-1.18837-4.61-1.18837-2.532 0-4.687.86217-6.465 2.58637Zm3.109 9.5942c-.93-.932-1.396-2.033-1.396-3.3029 0-1.2583.466-2.3476 1.396-3.268.942-.932 2.061-1.398 3.356-1.398 1.319 0 2.444.466 3.374 1.398.93.9204 1.395 2.0097 1.395 3.268 0 1.2699-.465 2.3709-1.395 3.3029-.93.9204-2.055 1.3806-3.374 1.3806-1.295 0-2.414-.4602-3.356-1.3806Z" clip-rule="evenodd"/></svg>